<?xml version="1.0" encoding="utf-8"?>
<!-- Generator: Adobe Illustrator 26.3.1, SVG Export Plug-In . SVG Version: 6.00 Build 0)  -->
<svg version="1.1" baseProfile="tiny" id="Layer_1" xmlns="http://www.w3.org/2000/svg" xmlns:xlink="http://www.w3.org/1999/xlink"
	 x="0px" y="0px" viewBox="0 0 35.5 35.5" overflow="visible" xml:space="preserve">
<g>
	<path fill="#4773AA" d="M24.4,0H11.1C9.4,0,7.9,1.4,7.9,3.2v29.1c0,1.8,1.4,3.2,3.2,3.2h13.3c1.8,0,3.2-1.4,3.2-3.2V3.2
		C27.6,1.4,26.2,0,24.4,0z M26.4,32.3c0,1.1-0.9,2-2,2H11.1c-1.1,0-2-0.9-2-2V3.2c0-1.1,0.9-2,2-2h13.3c1.1,0,2,0.9,2,2V32.3z"/>
	<path fill="#4773AA" d="M24.9,4.7H10.6c-0.2,0-0.4,0.2-0.4,0.4v25.3c0,0.2,0.2,0.4,0.4,0.4h14.3c0.2,0,0.4-0.2,0.4-0.4V5.1
		C25.3,4.9,25.1,4.7,24.9,4.7z"/>
	<path fill="#4773AA" d="M16.3,3.3h4.8c0.2,0,0.4-0.2,0.4-0.4s-0.2-0.4-0.4-0.4h-4.8c-0.2,0-0.4,0.2-0.4,0.4S16.1,3.3,16.3,3.3z"/>
	<circle fill="#4773AA" cx="14.8" cy="2.9" r="0.8"/>
	<path fill="#4773AA" d="M19.4,31.6h-3.3c-0.4,0-0.7,0.3-0.7,0.7v0.5c0,0.4,0.3,0.7,0.7,0.7h3.3c0.4,0,0.7-0.3,0.7-0.7v-0.5
		C20.2,31.9,19.8,31.6,19.4,31.6z"/>
</g>
</svg>
