<?xml version="1.0" encoding="utf-8"?>
<!-- Generator: Adobe Illustrator 26.3.1, SVG Export Plug-In . SVG Version: 6.00 Build 0)  -->
<svg version="1.1" baseProfile="tiny" id="Layer_1" xmlns="http://www.w3.org/2000/svg" xmlns:xlink="http://www.w3.org/1999/xlink"
	 x="0px" y="0px" viewBox="0 0 35.5 35.5" overflow="visible" xml:space="preserve">
<g>
	<polygon fill="#112E51" points="27,23.1 34,23.4 34.1,12.5 27,12.8 	"/>
	<path fill="#112E51" d="M13.8,13c-0.4,1.1-0.9,2.3-1.5,3.5h0.8c1.2,0,2.1,1,2.1,2.1c0,1.2-1,2.1-2.1,2.1H9c-0.6,0-1.1,0.5-1.1,1.1
		c0,0.6,0.5,1.1,1.1,1.1l1,0c1.8,0.1,4.3,0.1,5.5,0.2c4.6,0.3,7.1-1.7,7.1-1.8c0.1-0.1,0.2-0.1,0.2-0.1v-6.5L13.8,13z"/>
	<rect x="23.3" y="12.9" fill="#112E51" width="3.2" height="10.2"/>
	<path fill="#112E51" d="M7.3,21.8c0-0.9,0.8-1.7,1.7-1.7h0.9c3.8-7.1,5.6-13.4,6.3-16.5c0.1-0.5-0.2-0.8-0.5-1
		c-0.3-0.1-0.7-0.1-1,0.3c-7,9.4-9.4,19.2-9.7,20.7l2.3,1c0.3-0.4,0.6-0.9,0.9-1.4C7.6,23,7.3,22.5,7.3,21.8z"/>
	<path fill="#112E51" d="M6,14.8c-0.3,0.1-0.6,0.3-0.8,0.6l-3.5,4.5c-0.2,0.3-0.3,0.6-0.2,0.9c0.1,0.3,0.3,0.6,0.6,0.8
		c0.5,0.3,1.1,0.2,1.5-0.2l2.4-2.7c0.5-1.4,1.1-2.9,1.8-4.6L6,14.8z"/>
	<path fill="#112E51" d="M3.9,25.6c-0.1,0-0.5,0.1-1,0.5c-0.6,0.6-0.9,1.6-0.9,3c0,2.2-0.3,3.3-0.5,3.9c0.9-0.2,2.7-0.7,3.9-2.1
		c0.9-1.1,1.2-2.5,1-4.2L3.9,25.6z"/>
	<rect x="5.1" y="24" transform="matrix(0.4012 -0.916 0.916 0.4012 -19.6476 20.2809)" fill="#112E51" width="1.2" height="2.4"/>
</g>
</svg>
