<?xml version="1.0" encoding="utf-8"?>
<!-- Generator: Adobe Illustrator 26.3.1, SVG Export Plug-In . SVG Version: 6.00 Build 0)  -->
<svg version="1.1" baseProfile="tiny" id="Layer_1" xmlns="http://www.w3.org/2000/svg" xmlns:xlink="http://www.w3.org/1999/xlink"
	 x="0px" y="0px" viewBox="0 0 35.5 35.5" overflow="visible" xml:space="preserve">
<g>
	<g>
		<path fill="#112E51" d="M17.8,28.3L17.4,28c0,0-4-3.4-12.1-3.4H4.8V5.8h0.5c7.1-0.1,11.2,2.4,12.5,3.4C19,8.3,23,5.8,30.3,5.8h0.5
			v18.9h-0.5C22.2,24.6,18.2,28,18.2,28L17.8,28.3z M5.9,23.5c6.8,0,10.7,2.5,11.9,3.4c1.2-0.9,5.1-3.3,11.9-3.4V6.9
			C22,7,18.2,10.3,18.2,10.3l-0.4,0.3l-0.4-0.3c0,0-3.8-3.3-11.5-3.4C5.9,6.9,5.9,23.5,5.9,23.5z"/>
	</g>
	<g>
		<rect x="17.3" y="9.9" fill="#112E51" width="1.1" height="17.7"/>
	</g>
	<path fill="#112E51" d="M31.9,8v18.6H17.8c-0.1,0-0.1,0.1-0.1,0.1s0,0-0.1-0.1H3.8V8H2.3v20.2h12.9c0.5,0.9,1.4,1.5,2.5,1.5
		s2-0.6,2.5-1.5h12.9V8H31.9z"/>
</g>
</svg>
